{
	"asset":{
		"generator":"Khronos glTF Blender I/O v4.1.63",
		"version":"2.0"
	},
	"scene":0,
	"scenes":[
		{
			"name":"Scene",
			"nodes":[
				61
			]
		}
	],
	"nodes":[
		{
			"name":"Eyes.L",
			"rotation":[
				0.5801495313644409,
				0.10156328976154327,
				-0.30777284502983093,
				0.7472531795501709
			],
			"translation":[
				0.07015891373157501,
				0.08663272112607956,
				0.11380497366189957
			]
		},
		{
			"name":"Eyes.R",
			"rotation":[
				0.5617683529853821,
				0.26732906699180603,
				0.2400515079498291,
				0.7452025413513184
			],
			"scale":[
				1,
				1,
				1.0000001192092896
			],
			"translation":[
				-0.044729117304086685,
				0.09630537778139114,
				0.1415083259344101
			]
		},
		{
			"name":"tongue.002",
			"rotation":[
				0.11993627995252609,
				0.042793337255716324,
				-0.0022867450024932623,
				0.9918562769889832
			],
			"scale":[
				1,
				1,
				1.0000001192092896
			],
			"translation":[
				-1.1641532182693481e-09,
				0.07626287639141083,
				9.483483154326677e-08
			]
		},
		{
			"children":[
				2
			],
			"name":"tongue.001",
			"rotation":[
				0.11771328002214432,
				0.1302575320005417,
				-0.0230986587703228,
				0.984196662902832
			],
			"scale":[
				0.9999999403953552,
				0.9999998807907104,
				0.9999999403953552
			],
			"translation":[
				2.3283064365386963e-08,
				0.04581011086702347,
				-9.872019290924072e-08
			]
		},
		{
			"children":[
				3
			],
			"name":"tongue",
			"rotation":[
				-0.3477688431739807,
				-0.2300272136926651,
				0.05488446727395058,
				0.9072662591934204
			],
			"scale":[
				1.0000001192092896,
				1,
				1
			],
			"translation":[
				-0.00724036106839776,
				-0.040289007127285004,
				0.05935687571763992
			]
		},
		{
			"children":[
				4
			],
			"name":"EatD",
			"rotation":[
				0.7403615713119507,
				0.102544404566288,
				-0.13899773359298706,
				0.6496376395225525
			],
			"scale":[
				0.9999999403953552,
				1,
				1
			],
			"translation":[
				-0.02221084199845791,
				-0.027027856558561325,
				0.07136553525924683
			]
		},
		{
			"children":[
				0,
				1,
				5
			],
			"name":"Head",
			"rotation":[
				0.012975230813026428,
				-0.004562788177281618,
				0.03373851254582405,
				0.9993360638618469
			],
			"scale":[
				1,
				0.9999999403953552,
				0.9999998807907104
			],
			"translation":[
				-2.0652648699288206e-14,
				0.08194292336702347,
				3.725290298461914e-09
			]
		},
		{
			"children":[
				6
			],
			"name":"spine.005",
			"rotation":[
				-0.011110828258097172,
				-2.3840355822812853e-07,
				-3.3308746911234156e-15,
				0.9999382495880127
			],
			"scale":[
				1,
				0.9999999403953552,
				1
			],
			"translation":[
				6.34652564740967e-16,
				0.08762842416763306,
				0
			]
		},
		{
			"children":[
				7
			],
			"name":"spine.004",
			"rotation":[
				0.17064504325389862,
				-1.1746080019747751e-07,
				6.102742844404929e-08,
				0.9853325486183167
			],
			"translation":[
				3.140925852740395e-10,
				0.22573557496070862,
				-0.0006587021052837372
			]
		},
		{
			"name":"fingerU.L",
			"rotation":[
				0.10242476314306259,
				0.751878559589386,
				-0.10581554472446442,
				0.6426436901092529
			],
			"scale":[
				1,
				1,
				0.9999998807907104
			],
			"translation":[
				0.02499418333172798,
				0.03519376739859581,
				0.0026492811739444733
			]
		},
		{
			"name":"fingerS.L",
			"rotation":[
				0.04845578968524933,
				0.6746360063552856,
				-0.029563013464212418,
				0.7359648942947388
			],
			"scale":[
				0.9999998211860657,
				1,
				1
			],
			"translation":[
				0.007708987221121788,
				0.041263043880462646,
				0.0032720807939767838
			]
		},
		{
			"name":"fingerN.L",
			"rotation":[
				0.012748672626912594,
				0.6196617484092712,
				-0.04295358434319496,
				0.7835890650749207
			],
			"scale":[
				0.9999998807907104,
				0.9999998211860657,
				0.9999998807907104
			],
			"translation":[
				-0.009672047570347786,
				0.04284648224711418,
				0.001789415255188942
			]
		},
		{
			"name":"fingerM.L",
			"rotation":[
				-0.13949273526668549,
				0.49174174666404724,
				-0.004749508574604988,
				0.8594819903373718
			],
			"scale":[
				1.0000001192092896,
				1,
				0.9999999403953552
			],
			"translation":[
				-0.02314101904630661,
				0.033813025802373886,
				-0.0034761130809783936
			]
		},
		{
			"children":[
				9,
				10,
				11,
				12
			],
			"name":"hand2.L",
			"rotation":[
				-0.07062041759490967,
				-0.8313552141189575,
				-0.021712809801101685,
				0.550808310508728
			],
			"translation":[
				-2.0489096641540527e-08,
				0.09229384362697601,
				-1.4901161193847656e-08
			]
		},
		{
			"name":"fingerB.L",
			"rotation":[
				0.21650220453739166,
				0.1462332159280777,
				-0.04127996414899826,
				0.9643850922584534
			],
			"scale":[
				1,
				0.9999999403953552,
				0.9999999403953552
			],
			"translation":[
				-0.0009274482727050781,
				0.07829640805721283,
				0.048918090760707855
			]
		},
		{
			"children":[
				13,
				14
			],
			"name":"hand.L",
			"rotation":[
				-0.0032118093222379684,
				0.3516833186149597,
				-0.05870192125439644,
				0.9342711567878723
			],
			"scale":[
				1,
				1.0000001192092896,
				0.9999999403953552
			],
			"translation":[
				-1.3504177331924438e-08,
				0.3035876452922821,
				2.9802322387695312e-08
			]
		},
		{
			"children":[
				15
			],
			"name":"forearm.L",
			"rotation":[
				0.04009426385164261,
				0.024868948385119438,
				-0.09239651262760162,
				0.9946039319038391
			],
			"scale":[
				1,
				1.0000001192092896,
				1
			],
			"translation":[
				8.381903171539307e-09,
				0.3658927083015442,
				0
			]
		},
		{
			"children":[
				16
			],
			"name":"upper_arm.L",
			"rotation":[
				-0.43563494086265564,
				0.4824802279472351,
				-0.5760906934738159,
				0.4955347180366516
			],
			"scale":[
				0.9999999403953552,
				0.9999999403953552,
				1
			],
			"translation":[
				-0.023906970396637917,
				0.29989945888519287,
				-0.14292146265506744
			]
		},
		{
			"children":[
				17
			],
			"name":"shoulder.L",
			"rotation":[
				-0.49956250190734863,
				-0.46312186121940613,
				-0.37023699283599854,
				0.631569504737854
			],
			"scale":[
				1,
				0.9999999403953552,
				1
			],
			"translation":[
				0.032284148037433624,
				0.17600023746490479,
				0.20298583805561066
			]
		},
		{
			"name":"fingerU3.R",
			"rotation":[
				-0.048863597214221954,
				0.5965380072593689,
				0.19631244242191315,
				0.776669979095459
			],
			"scale":[
				1,
				1,
				0.9999999403953552
			],
			"translation":[
				-6.705522537231445e-08,
				0.06594811379909515,
				-7.450580596923828e-09
			]
		},
		{
			"children":[
				19
			],
			"name":"fingerU2.R",
			"rotation":[
				0.13014604151248932,
				0.07533691078424454,
				0.16702674329280853,
				0.974416971206665
			],
			"scale":[
				0.9999998807907104,
				1,
				0.9999998807907104
			],
			"translation":[
				4.284083843231201e-08,
				0.0988159030675888,
				8.195638656616211e-08
			]
		},
		{
			"children":[
				20
			],
			"name":"fingerU.R",
			"rotation":[
				0.073184534907341,
				0.24864576756954193,
				0.006053812336176634,
				0.965806782245636
			],
			"scale":[
				0.9999999403953552,
				1.0000001192092896,
				0.9999999403953552
			],
			"translation":[
				0.1253732442855835,
				0.09326515346765518,
				0.03430263698101044
			]
		},
		{
			"name":"fingerS3.R",
			"rotation":[
				0.21400924026966095,
				0.39361852407455444,
				0.12837736308574677,
				0.8847506642341614
			],
			"scale":[
				1,
				0.9999999403953552,
				1
			],
			"translation":[
				8.940696716308594e-08,
				0.1074380874633789,
				8.195638656616211e-08
			]
		},
		{
			"children":[
				22
			],
			"name":"fingerS2.R",
			"rotation":[
				0.1598457396030426,
				-0.041300106793642044,
				0.019091470167040825,
				0.9860929250717163
			],
			"scale":[
				1.0000001192092896,
				0.9999999403953552,
				0.9999999403953552
			],
			"translation":[
				1.564621925354004e-07,
				0.0824977308511734,
				5.797483026981354e-08
			]
		},
		{
			"children":[
				23
			],
			"name":"fingerS.R",
			"rotation":[
				0.014121233485639095,
				-0.08384546637535095,
				0.01215891819447279,
				0.9963045120239258
			],
			"scale":[
				0.9999999403953552,
				0.9999998807907104,
				0.9999999403953552
			],
			"translation":[
				0.04102078825235367,
				0.09791719913482666,
				-0.012836475856602192
			]
		},
		{
			"name":"fingerN3.R",
			"rotation":[
				0.12847454845905304,
				0.9588193297386169,
				0.24390675127506256,
				0.06833215802907944
			],
			"scale":[
				0.9999998211860657,
				0.9999996423721313,
				0.9999999403953552
			],
			"translation":[
				-8.195638656616211e-08,
				0.11224579811096191,
				-4.470348358154297e-08
			]
		},
		{
			"children":[
				25
			],
			"name":"fingerN2.R",
			"rotation":[
				0.1577761471271515,
				0.15453794598579407,
				-0.055919378995895386,
				0.973703145980835
			],
			"scale":[
				1,
				0.9999999403953552,
				0.9999998807907104
			],
			"translation":[
				-1.4901161193847656e-07,
				0.0669272318482399,
				1.1175870895385742e-08
			]
		},
		{
			"children":[
				26
			],
			"name":"fingerN.R",
			"rotation":[
				-0.022677814587950706,
				-0.32000255584716797,
				0.04005950689315796,
				0.9462977051734924
			],
			"scale":[
				1,
				0.9999999403953552,
				1
			],
			"translation":[
				-0.045344073325395584,
				0.09121676534414291,
				-0.02911536768078804
			]
		},
		{
			"name":"fingerM3.R",
			"rotation":[
				0.1622721254825592,
				0.8938652873039246,
				0.19292400777339935,
				0.3707464337348938
			],
			"scale":[
				0.9999998807907104,
				0.9999997615814209,
				0.9999998807907104
			],
			"translation":[
				-2.2351741790771484e-08,
				0.07256777584552765,
				3.725290298461914e-08
			]
		},
		{
			"children":[
				28
			],
			"name":"fingerM2.R",
			"rotation":[
				0.08859322965145111,
				0.4860714375972748,
				-0.15949317812919617,
				0.8546623587608337
			],
			"scale":[
				0.9999998211860657,
				0.9999997615814209,
				0.9999998211860657
			],
			"translation":[
				1.3783574104309082e-07,
				0.0731208324432373,
				-9.266659617424011e-08
			]
		},
		{
			"children":[
				29
			],
			"name":"fingerM.R",
			"rotation":[
				0.08021783083677292,
				-0.645374059677124,
				0.11201087385416031,
				0.7513394951820374
			],
			"scale":[
				1,
				1,
				0.9999999403953552
			],
			"translation":[
				-0.11779911816120148,
				0.05873190611600876,
				-0.02485160529613495
			]
		},
		{
			"children":[
				21,
				24,
				27,
				30
			],
			"name":"hand2.R",
			"rotation":[
				0.1959942728281021,
				0.07898524403572083,
				-0.03217773139476776,
				0.9768890738487244
			],
			"translation":[
				-6.51925802230835e-08,
				0.261554479598999,
				9.546056389808655e-09
			]
		},
		{
			"name":"fingerB2.R",
			"rotation":[
				0.1899266242980957,
				0.5228219032287598,
				0.0969218909740448,
				0.825343132019043
			],
			"scale":[
				1,
				1,
				0.9999998807907104
			],
			"translation":[
				5.587935447692871e-08,
				0.12721920013427734,
				1.1920928955078125e-07
			]
		},
		{
			"children":[
				32
			],
			"name":"fingerB.R",
			"rotation":[
				0.07256501168012619,
				-0.6201518774032593,
				-0.5167263746261597,
				0.5857812762260437
			],
			"scale":[
				1,
				1.000000238418579,
				1.0000001192092896
			],
			"translation":[
				0.16679327189922333,
				0.1160774976015091,
				0.038907330483198166
			]
		},
		{
			"children":[
				31,
				33
			],
			"name":"hand.R",
			"rotation":[
				0.20560197532176971,
				0.6910332441329956,
				-0.09561970829963684,
				0.6863364577293396
			],
			"scale":[
				1.0000001192092896,
				1.0000001192092896,
				1.0000001192092896
			],
			"translation":[
				1.341104507446289e-07,
				0.5085867047309875,
				7.450580596923828e-09
			]
		},
		{
			"children":[
				34
			],
			"name":"forearm.R",
			"rotation":[
				0.4429005980491638,
				-0.7238763570785522,
				-0.48156872391700745,
				0.21893759071826935
			],
			"scale":[
				1,
				1.0000001192092896,
				1
			],
			"translation":[
				3.725290298461914e-08,
				0.7026353478431702,
				1.4901161193847656e-08
			]
		},
		{
			"children":[
				35
			],
			"name":"upper_arm.R",
			"rotation":[
				-0.2462102621793747,
				-0.5225368738174438,
				0.628454864025116,
				0.5209417939186096
			],
			"scale":[
				1,
				1,
				0.9999999403953552
			],
			"translation":[
				0.12067103385925293,
				0.4192144274711609,
				-0.06901326030492783
			]
		},
		{
			"children":[
				36
			],
			"name":"shoulder.R",
			"rotation":[
				-0.4791450798511505,
				0.5033680200576782,
				0.4579068124294281,
				0.5544024109840393
			],
			"scale":[
				1,
				1.0000001192092896,
				1
			],
			"translation":[
				-0.032284341752529144,
				0.16269934177398682,
				0.20354652404785156
			]
		},
		{
			"children":[
				8,
				18,
				37
			],
			"name":"spine.003",
			"rotation":[
				0.11073337495326996,
				1.1847637182427206e-07,
				3.9601328438720884e-08,
				0.9938501715660095
			],
			"translation":[
				1.3180184177950024e-15,
				0.18950538337230682,
				7.450580596923828e-09
			]
		},
		{
			"children":[
				38
			],
			"name":"spine.002",
			"rotation":[
				-0.1199713870882988,
				-1.1834855939696354e-07,
				-4.290510702276151e-08,
				0.9927773475646973
			],
			"translation":[
				2.6645352591003757e-15,
				0.22630077600479126,
				-3.725290298461914e-09
			]
		},
		{
			"children":[
				39
			],
			"name":"spine.001",
			"rotation":[
				-0.14960788190364838,
				1.1767576659198892e-13,
				-7.13386185680065e-08,
				0.988745391368866
			],
			"scale":[
				1,
				1,
				0.9999999403953552
			],
			"translation":[
				3.552713678800501e-15,
				0.18227118253707886,
				-3.3527612686157227e-08
			]
		},
		{
			"name":"toe.L",
			"rotation":[
				0.016504239290952682,
				0.9839014410972595,
				-0.17227055132389069,
				0.04459192603826523
			],
			"scale":[
				1.0000001192092896,
				1.000000238418579,
				1
			],
			"translation":[
				-2.0954757928848267e-08,
				0.20018434524536133,
				-1.2973032426089048e-08
			]
		},
		{
			"children":[
				41
			],
			"name":"foot.L",
			"rotation":[
				-0.5397109389305115,
				-0.026010045781731606,
				-0.042983897030353546,
				0.8403499126434326
			],
			"scale":[
				0.9999999403953552,
				1,
				1
			],
			"translation":[
				-2.9853254090994596e-08,
				0.43011143803596497,
				-1.7316779121756554e-09
			]
		},
		{
			"children":[
				42
			],
			"name":"shin.L",
			"rotation":[
				0.17427533864974976,
				-0.0011197092244401574,
				0.034363772720098495,
				0.9840965270996094
			],
			"scale":[
				0.9999999403953552,
				1.0000001192092896,
				1.0000001192092896
			],
			"translation":[
				-1.8888385966420174e-08,
				0.4627867639064789,
				-6.05359673500061e-09
			]
		},
		{
			"children":[
				43
			],
			"name":"thigh.L",
			"rotation":[
				-0.38397568464279175,
				-0.6801403760910034,
				0.6241798996925354,
				0.01926356926560402
			],
			"scale":[
				1,
				1,
				1.0000001192092896
			],
			"translation":[
				-0.006212699227035046,
				0.15811263024806976,
				-0.06244968622922897
			]
		},
		{
			"children":[
				44
			],
			"name":"pelvis.L",
			"rotation":[
				-0.0893983319401741,
				-0.7660856246948242,
				-0.5013976693153381,
				0.392072856426239
			],
			"scale":[
				0.9999999403953552,
				0.9999997615814209,
				0.9999999403953552
			],
			"translation":[
				0.06083538755774498,
				-0.06633265316486359,
				-0.012292400933802128
			]
		},
		{
			"name":"toe.R",
			"rotation":[
				0.0165043156594038,
				-0.9839014410972595,
				0.1722704917192459,
				0.04459192603826523
			],
			"scale":[
				1.0000001192092896,
				0.9999996423721313,
				1
			],
			"translation":[
				8.847564458847046e-09,
				0.20018437504768372,
				-7.152266334742308e-09
			]
		},
		{
			"children":[
				46
			],
			"name":"foot.R",
			"rotation":[
				-0.5397109985351562,
				0.026009926572442055,
				0.04298406466841698,
				0.8403499126434326
			],
			"scale":[
				0.9999998807907104,
				0.9999999403953552,
				0.9999999403953552
			],
			"translation":[
				-1.1568772606551647e-08,
				0.4301114082336426,
				5.282345227897167e-09
			]
		},
		{
			"children":[
				47
			],
			"name":"shin.R",
			"rotation":[
				0.17427536845207214,
				0.0011199858272448182,
				-0.03436386585235596,
				0.9840965270996094
			],
			"scale":[
				0.9999999403953552,
				1,
				1
			],
			"translation":[
				4.94765117764473e-10,
				0.4627867639064789,
				-2.7939677238464355e-09
			]
		},
		{
			"children":[
				48
			],
			"name":"thigh.R",
			"rotation":[
				-0.3839760422706604,
				0.680140495300293,
				-0.6241796612739563,
				0.019263697788119316
			],
			"scale":[
				1,
				1.000000238418579,
				1
			],
			"translation":[
				0.006212733685970306,
				0.15811263024806976,
				-0.062449704855680466
			]
		},
		{
			"children":[
				49
			],
			"name":"pelvis.R",
			"rotation":[
				-0.08939847350120544,
				0.7660853266716003,
				0.5013976693153381,
				0.3920734226703644
			],
			"scale":[
				0.9999998807907104,
				0.9999997615814209,
				0.9999998807907104
			],
			"translation":[
				-0.060835372656583786,
				-0.06633266061544418,
				-0.012292458675801754
			]
		},
		{
			"children":[
				40,
				45,
				50
			],
			"name":"spine",
			"rotation":[
				0.17955873906612396,
				2.345436342920948e-07,
				4.281012877527246e-08,
				0.9837472438812256
			],
			"translation":[
				0,
				1.142797589302063,
				-0.10630956292152405
			]
		},
		{
			"name":"Control.L",
			"rotation":[
				-0.9204229116439819,
				4.6601790870681725e-08,
				-1.0972296848876795e-07,
				0.3909241557121277
			],
			"translation":[
				0.2097546011209488,
				0.18689970672130585,
				-0.07959838956594467
			]
		},
		{
			"name":"TOP.L",
			"rotation":[
				0.7069998979568481,
				0.012297379784286022,
				0.012297379784286022,
				0.7069998383522034
			],
			"scale":[
				0.9999999403953552,
				1,
				0.9999999403953552
			],
			"translation":[
				0.21090896427631378,
				0.6082879900932312,
				0.311579167842865
			]
		},
		{
			"name":"Control.R",
			"rotation":[
				-0.9204229116439819,
				-4.6601790870681725e-08,
				1.0972296848876795e-07,
				0.3909241557121277
			],
			"translation":[
				-0.2097546011209488,
				0.18689970672130585,
				-0.07959838956594467
			]
		},
		{
			"name":"TOP.R",
			"rotation":[
				0.7069998979568481,
				-0.012297379784286022,
				-0.012297379784286022,
				0.7069998383522034
			],
			"scale":[
				0.9999999403953552,
				1,
				0.9999999403953552
			],
			"translation":[
				-0.21090896427631378,
				0.6082879900932312,
				0.311579167842865
			]
		},
		{
			"name":"ControlHand.R",
			"rotation":[
				-0.34704676270484924,
				-0.4170650839805603,
				-0.3597434163093567,
				0.7590783834457397
			],
			"scale":[
				0.9999999403953552,
				0.9999998807907104,
				0.9999999403953552
			],
			"translation":[
				-0.013189021497964859,
				1.203629732131958,
				0.6835509538650513
			]
		},
		{
			"name":"ControlHand.L",
			"rotation":[
				-0.035385362803936005,
				0.03510775417089462,
				0.9987333416938782,
				0.006860372144728899
			],
			"scale":[
				0.9999999403953552,
				0.9999996423721313,
				0.9999999403953552
			],
			"translation":[
				0.42130598425865173,
				1.0785644054412842,
				0.09633521735668182
			]
		},
		{
			"name":"TopHand.R",
			"rotation":[
				-0.4245802164077759,
				-0.08404555916786194,
				0.6912708282470703,
				0.5786299705505371
			],
			"scale":[
				1,
				1.0000001192092896,
				1
			],
			"translation":[
				-0.7660688161849976,
				1.1871790885925293,
				0.10401703417301178
			]
		},
		{
			"name":"TopHand.L",
			"rotation":[
				-0.4793514311313629,
				0.5429750084877014,
				-0.504355251789093,
				0.4701342284679413
			],
			"scale":[
				0.9999999403953552,
				0.9999996423721313,
				0.9999999403953552
			],
			"translation":[
				0.4142782390117645,
				1.4701329469680786,
				-0.09078070521354675
			]
		},
		{
			"mesh":0,
			"name":"BullyMan",
			"skin":0
		},
		{
			"children":[
				60,
				51,
				52,
				53,
				54,
				55,
				56,
				57,
				58,
				59
			],
			"name":"BonesF"
		}
	],
	"materials":[
		{
			"doubleSided":true,
			"name":"MaterialBullyMan",
			"pbrMetallicRoughness":{
				"baseColorTexture":{
					"index":0
				},
				"metallicFactor":0,
				"metallicRoughnessTexture":{
					"index":1
				}
			}
		}
	],
	"meshes":[
		{
			"name":"MeshBullyMan",
			"primitives":[
				{
					"attributes":{
						"POSITION":0,
						"NORMAL":1,
						"TEXCOORD_0":2,
						"JOINTS_0":3,
						"WEIGHTS_0":4
					},
					"indices":5,
					"material":0
				}
			]
		}
	],
	"textures":[
		{
			"sampler":0,
			"source":0
		},
		{
			"sampler":0,
			"source":1
		}
	],
	"images":[
		{
			"mimeType":"image/png",
			"name":"DiffuseBullyMan",
			"uri":"DiffuseBullyMan.png"
		},
		{
			"mimeType":"image/png",
			"name":"Image",
			"uri":"Image.png"
		}
	],
	"skins":[
		{
			"inverseBindMatrices":6,
			"joints":[
				51,
				40,
				39,
				38,
				8,
				7,
				6,
				0,
				1,
				5,
				4,
				3,
				2,
				18,
				17,
				16,
				15,
				13,
				9,
				10,
				11,
				12,
				14,
				37,
				36,
				35,
				34,
				31,
				21,
				20,
				19,
				24,
				23,
				22,
				27,
				26,
				25,
				30,
				29,
				28,
				33,
				32,
				45,
				44,
				43,
				42,
				41,
				50,
				49,
				48,
				47,
				46,
				52,
				53,
				54,
				55,
				56,
				57,
				58,
				59
			],
			"name":"BonesF"
		}
	],
	"accessors":[
		{
			"bufferView":0,
			"componentType":5126,
			"count":9261,
			"max":[
				0.451594740152359,
				2.3069591522216797,
				0.7979682683944702
			],
			"min":[
				-0.9791639447212219,
				0.00041687488555908203,
				-0.24187074601650238
			],
			"type":"VEC3"
		},
		{
			"bufferView":1,
			"componentType":5126,
			"count":9261,
			"type":"VEC3"
		},
		{
			"bufferView":2,
			"componentType":5126,
			"count":9261,
			"type":"VEC2"
		},
		{
			"bufferView":3,
			"componentType":5121,
			"count":9261,
			"type":"VEC4"
		},
		{
			"bufferView":4,
			"componentType":5126,
			"count":9261,
			"type":"VEC4"
		},
		{
			"bufferView":5,
			"componentType":5123,
			"count":46854,
			"type":"SCALAR"
		},
		{
			"bufferView":6,
			"componentType":5126,
			"count":60,
			"type":"MAT4"
		}
	],
	"bufferViews":[
		{
			"buffer":0,
			"byteLength":111132,
			"byteOffset":0,
			"target":34962
		},
		{
			"buffer":0,
			"byteLength":111132,
			"byteOffset":111132,
			"target":34962
		},
		{
			"buffer":0,
			"byteLength":74088,
			"byteOffset":222264,
			"target":34962
		},
		{
			"buffer":0,
			"byteLength":37044,
			"byteOffset":296352,
			"target":34962
		},
		{
			"buffer":0,
			"byteLength":148176,
			"byteOffset":333396,
			"target":34962
		},
		{
			"buffer":0,
			"byteLength":93708,
			"byteOffset":481572,
			"target":34963
		},
		{
			"buffer":0,
			"byteLength":3840,
			"byteOffset":575280
		}
	],
	"samplers":[
		{
			"magFilter":9729,
			"minFilter":9987
		}
	],
	"buffers":[
		{
			"byteLength":579120,
			"uri":"scene.bin"
		}
	]
}
