{
	"asset":{
		"generator":"Khronos glTF Blender I/O v4.1.63",
		"version":"2.0"
	},
	"scene":0,
	"scenes":[
		{
			"name":"Scene",
			"nodes":[
				0,
				1,
				2,
				3,
				4,
				5
			]
		}
	],
	"nodes":[
		{
			"mesh":0,
			"name":"Plane"
		},
		{
			"mesh":1,
			"name":"Icosphere"
		},
		{
			"mesh":2,
			"name":"Plane.001"
		},
		{
			"mesh":3,
			"name":"Plane.002"
		},
		{
			"mesh":4,
			"name":"Plane.003"
		},
		{
			"mesh":5,
			"name":"Icosphere.001"
		}
	],
	"materials":[
		{
			"alphaCutoff":0.5,
			"alphaMode":"MASK",
			"doubleSided":true,
			"name":"back",
			"pbrMetallicRoughness":{
				"baseColorTexture":{
					"index":0
				},
				"metallicFactor":0,
				"roughnessFactor":0.5
			}
		},
		{
			"doubleSided":true,
			"name":"face",
			"pbrMetallicRoughness":{
				"baseColorTexture":{
					"index":1
				},
				"metallicFactor":0,
				"roughnessFactor":0.5
			}
		},
		{
			"alphaCutoff":0.5,
			"alphaMode":"MASK",
			"doubleSided":true,
			"name":"antennae",
			"pbrMetallicRoughness":{
				"baseColorTexture":{
					"index":2
				},
				"metallicFactor":0,
				"roughnessFactor":0.5
			}
		},
		{
			"alphaCutoff":0.5,
			"alphaMode":"MASK",
			"doubleSided":true,
			"name":"Material.001",
			"pbrMetallicRoughness":{
				"baseColorTexture":{
					"index":3
				},
				"metallicFactor":0,
				"roughnessFactor":0.5
			}
		},
		{
			"doubleSided":true,
			"name":"body",
			"pbrMetallicRoughness":{
				"baseColorTexture":{
					"index":4
				},
				"metallicFactor":0,
				"roughnessFactor":0.5
			}
		}
	],
	"meshes":[
		{
			"name":"Plane",
			"primitives":[
				{
					"attributes":{
						"POSITION":0,
						"NORMAL":1,
						"TEXCOORD_0":2
					},
					"indices":3,
					"material":0
				}
			]
		},
		{
			"name":"Icosphere",
			"primitives":[
				{
					"attributes":{
						"POSITION":4,
						"NORMAL":5,
						"TEXCOORD_0":6
					},
					"indices":7,
					"material":1
				}
			]
		},
		{
			"name":"Plane.001",
			"primitives":[
				{
					"attributes":{
						"POSITION":8,
						"NORMAL":9,
						"TEXCOORD_0":10
					},
					"indices":11,
					"material":2
				}
			]
		},
		{
			"name":"Plane.002",
			"primitives":[
				{
					"attributes":{
						"POSITION":12,
						"NORMAL":13,
						"TEXCOORD_0":14
					},
					"indices":11,
					"material":3
				}
			]
		},
		{
			"name":"Plane.003",
			"primitives":[
				{
					"attributes":{
						"POSITION":15,
						"NORMAL":16,
						"TEXCOORD_0":17
					},
					"indices":11,
					"material":3
				}
			]
		},
		{
			"name":"Icosphere.001",
			"primitives":[
				{
					"attributes":{
						"POSITION":18,
						"NORMAL":19,
						"TEXCOORD_0":20
					},
					"indices":21,
					"material":4
				}
			]
		}
	],
	"textures":[
		{
			"sampler":0,
			"source":0
		},
		{
			"sampler":0,
			"source":1
		},
		{
			"sampler":0,
			"source":2
		},
		{
			"sampler":1,
			"source":3
		},
		{
			"sampler":0,
			"source":4
		}
	],
	"images":[
		{
			"mimeType":"image/png",
			"name":"cricketback",
			"uri":"cricketback.png"
		},
		{
			"mimeType":"image/png",
			"name":"cricketface",
			"uri":"cricketface.png"
		},
		{
			"mimeType":"image/png",
			"name":"cricketantennae",
			"uri":"cricketantennae.png"
		},
		{
			"mimeType":"image/png",
			"name":"cricketleg",
			"uri":"cricketleg.png"
		},
		{
			"mimeType":"image/png",
			"name":"cricketbody",
			"uri":"cricketbody.png"
		}
	],
	"accessors":[
		{
			"bufferView":0,
			"componentType":5126,
			"count":12,
			"max":[
				1.025387167930603,
				0.05464756488800049,
				1.0273369550704956
			],
			"min":[
				-1.025387167930603,
				-0.5987138152122498,
				-1.0273369550704956
			],
			"type":"VEC3"
		},
		{
			"bufferView":1,
			"componentType":5126,
			"count":12,
			"type":"VEC3"
		},
		{
			"bufferView":2,
			"componentType":5126,
			"count":12,
			"type":"VEC2"
		},
		{
			"bufferView":3,
			"componentType":5123,
			"count":24,
			"type":"SCALAR"
		},
		{
			"bufferView":4,
			"componentType":5126,
			"count":36,
			"max":[
				0.26480337977409363,
				0.2946266531944275,
				1.2873539924621582
			],
			"min":[
				-0.2587797939777374,
				-0.2491917908191681,
				0.719853401184082
			],
			"type":"VEC3"
		},
		{
			"bufferView":5,
			"componentType":5126,
			"count":36,
			"type":"VEC3"
		},
		{
			"bufferView":6,
			"componentType":5126,
			"count":36,
			"type":"VEC2"
		},
		{
			"bufferView":7,
			"componentType":5123,
			"count":36,
			"type":"SCALAR"
		},
		{
			"bufferView":8,
			"componentType":5126,
			"count":4,
			"max":[
				1,
				1.8499813079833984,
				1.6406373977661133
			],
			"min":[
				-1,
				-0.05005359649658203,
				1.0162436962127686
			],
			"type":"VEC3"
		},
		{
			"bufferView":9,
			"componentType":5126,
			"count":4,
			"type":"VEC3"
		},
		{
			"bufferView":10,
			"componentType":5126,
			"count":4,
			"type":"VEC2"
		},
		{
			"bufferView":11,
			"componentType":5123,
			"count":6,
			"type":"SCALAR"
		},
		{
			"bufferView":12,
			"componentType":5126,
			"count":4,
			"max":[
				-0.3503534197807312,
				0.36352020502090454,
				-0.17344552278518677
			],
			"min":[
				-0.5401800274848938,
				-0.5361323356628418,
				-1.0929067134857178
			],
			"type":"VEC3"
		},
		{
			"bufferView":13,
			"componentType":5126,
			"count":4,
			"type":"VEC3"
		},
		{
			"bufferView":14,
			"componentType":5126,
			"count":4,
			"type":"VEC2"
		},
		{
			"bufferView":15,
			"componentType":5126,
			"count":4,
			"max":[
				0.5098536014556885,
				0.345414936542511,
				-0.1468943953514099
			],
			"min":[
				0.2558375597000122,
				-0.6219148635864258,
				-1.147019863128662
			],
			"type":"VEC3"
		},
		{
			"bufferView":16,
			"componentType":5126,
			"count":4,
			"type":"VEC3"
		},
		{
			"bufferView":17,
			"componentType":5126,
			"count":4,
			"type":"VEC2"
		},
		{
			"bufferView":18,
			"componentType":5126,
			"count":36,
			"max":[
				0.2225138545036316,
				-0.08314275741577148,
				1.07871413230896
			],
			"min":[
				-0.43608829379081726,
				-0.7784140110015869,
				-0.8955187201499939
			],
			"type":"VEC3"
		},
		{
			"bufferView":19,
			"componentType":5126,
			"count":36,
			"type":"VEC3"
		},
		{
			"bufferView":20,
			"componentType":5126,
			"count":36,
			"type":"VEC2"
		},
		{
			"bufferView":21,
			"componentType":5123,
			"count":36,
			"type":"SCALAR"
		}
	],
	"bufferViews":[
		{
			"buffer":0,
			"byteLength":144,
			"byteOffset":0,
			"target":34962
		},
		{
			"buffer":0,
			"byteLength":144,
			"byteOffset":144,
			"target":34962
		},
		{
			"buffer":0,
			"byteLength":96,
			"byteOffset":288,
			"target":34962
		},
		{
			"buffer":0,
			"byteLength":48,
			"byteOffset":384,
			"target":34963
		},
		{
			"buffer":0,
			"byteLength":432,
			"byteOffset":432,
			"target":34962
		},
		{
			"buffer":0,
			"byteLength":432,
			"byteOffset":864,
			"target":34962
		},
		{
			"buffer":0,
			"byteLength":288,
			"byteOffset":1296,
			"target":34962
		},
		{
			"buffer":0,
			"byteLength":72,
			"byteOffset":1584,
			"target":34963
		},
		{
			"buffer":0,
			"byteLength":48,
			"byteOffset":1656,
			"target":34962
		},
		{
			"buffer":0,
			"byteLength":48,
			"byteOffset":1704,
			"target":34962
		},
		{
			"buffer":0,
			"byteLength":32,
			"byteOffset":1752,
			"target":34962
		},
		{
			"buffer":0,
			"byteLength":12,
			"byteOffset":1784,
			"target":34963
		},
		{
			"buffer":0,
			"byteLength":48,
			"byteOffset":1796,
			"target":34962
		},
		{
			"buffer":0,
			"byteLength":48,
			"byteOffset":1844,
			"target":34962
		},
		{
			"buffer":0,
			"byteLength":32,
			"byteOffset":1892,
			"target":34962
		},
		{
			"buffer":0,
			"byteLength":48,
			"byteOffset":1924,
			"target":34962
		},
		{
			"buffer":0,
			"byteLength":48,
			"byteOffset":1972,
			"target":34962
		},
		{
			"buffer":0,
			"byteLength":32,
			"byteOffset":2020,
			"target":34962
		},
		{
			"buffer":0,
			"byteLength":432,
			"byteOffset":2052,
			"target":34962
		},
		{
			"buffer":0,
			"byteLength":432,
			"byteOffset":2484,
			"target":34962
		},
		{
			"buffer":0,
			"byteLength":288,
			"byteOffset":2916,
			"target":34962
		},
		{
			"buffer":0,
			"byteLength":72,
			"byteOffset":3204,
			"target":34963
		}
	],
	"samplers":[
		{
			"magFilter":9729,
			"minFilter":9987
		},
		{
			"magFilter":9729,
			"minFilter":9987,
			"wrapS":33071,
			"wrapT":33071
		}
	],
	"buffers":[
		{
			"byteLength":3276,
			"uri":"scene.bin"
		}
	]
}
