{
	"asset":{
		"generator":"Khronos glTF Blender I/O v4.1.63",
		"version":"2.0"
	},
	"scene":0,
	"scenes":[
		{
			"name":"Scene",
			"nodes":[
				61
			]
		}
	],
	"nodes":[
		{
			"name":"Eyes.L",
			"rotation":[
				0.5801498889923096,
				0.1015629991889,
				-0.3077731430530548,
				0.7472528219223022
			],
			"scale":[
				0.9999998807907104,
				1.0000001192092896,
				1
			],
			"translation":[
				0.07015891373157501,
				0.08663259446620941,
				0.11380493640899658
			]
		},
		{
			"name":"Eyes.R",
			"rotation":[
				0.5617682337760925,
				0.26732879877090454,
				0.24005116522312164,
				0.7452028393745422
			],
			"scale":[
				1,
				0.9999998807907104,
				0.9999999403953552
			],
			"translation":[
				-0.04472896456718445,
				0.09630538523197174,
				0.14150823652744293
			]
		},
		{
			"name":"tongue.002",
			"rotation":[
				0.11993663012981415,
				0.04279322549700737,
				-0.002286697505041957,
				0.9918562173843384
			],
			"scale":[
				1,
				0.9999999403953552,
				0.9999999403953552
			],
			"translation":[
				-5.122274160385132e-09,
				0.07626289874315262,
				8.60018189996481e-08
			]
		},
		{
			"children":[
				2
			],
			"name":"tongue.001",
			"rotation":[
				0.11771303415298462,
				0.13025766611099243,
				-0.023098628968000412,
				0.984196662902832
			],
			"scale":[
				1,
				0.9999999403953552,
				1
			],
			"translation":[
				4.6566128730773926e-09,
				0.045810189098119736,
				-3.8277357816696167e-07
			]
		},
		{
			"children":[
				3
			],
			"name":"tongue",
			"rotation":[
				-0.3477686643600464,
				-0.23002728819847107,
				0.05488446727395058,
				0.9072663187980652
			],
			"scale":[
				1,
				1,
				1.0000001192092896
			],
			"translation":[
				-0.00724039226770401,
				-0.04028913751244545,
				0.059356797486543655
			]
		},
		{
			"children":[
				4
			],
			"name":"EatD",
			"rotation":[
				0.7403615117073059,
				0.10254435241222382,
				-0.13899777829647064,
				0.6496376991271973
			],
			"scale":[
				0.9999999403953552,
				1,
				0.9999998807907104
			],
			"translation":[
				-0.022210825234651566,
				-0.027027979493141174,
				0.07136569172143936
			]
		},
		{
			"children":[
				0,
				1,
				5
			],
			"name":"Head",
			"rotation":[
				0.012975634075701237,
				-0.004562768153846264,
				0.033738572150468826,
				0.9993360638618469
			],
			"scale":[
				1,
				0.9999999403953552,
				0.9999998807907104
			],
			"translation":[
				-6.693992582462727e-10,
				0.08194298297166824,
				-2.7008354663848877e-08
			]
		},
		{
			"children":[
				6
			],
			"name":"spine.005",
			"rotation":[
				-0.011111126281321049,
				-2.738402429258713e-07,
				8.107759602582476e-11,
				0.9999382495880127
			],
			"translation":[
				2.1514135416754454e-14,
				0.08762850612401962,
				-8.940696716308594e-08
			]
		},
		{
			"children":[
				7
			],
			"name":"spine.004",
			"rotation":[
				0.17064528167247772,
				-1.0565932484496443e-07,
				6.37858903473898e-08,
				0.9853325486183167
			],
			"scale":[
				1,
				0.9999999403953552,
				0.9999999403953552
			],
			"translation":[
				3.1684216361682616e-10,
				0.22573569416999817,
				-0.0006586909294128418
			]
		},
		{
			"name":"fingerU.L",
			"rotation":[
				0.10242483764886856,
				0.7518786191940308,
				-0.10581547766923904,
				0.6426436305046082
			],
			"scale":[
				0.9999999403953552,
				0.9999998807907104,
				1.0000001192092896
			],
			"translation":[
				0.02499418333172798,
				0.03519377484917641,
				0.0026493631303310394
			]
		},
		{
			"name":"fingerS.L",
			"rotation":[
				0.04845578595995903,
				0.6746360063552856,
				-0.02956318110227585,
				0.7359648942947388
			],
			"scale":[
				0.9999999403953552,
				1,
				1
			],
			"translation":[
				0.007709022611379623,
				0.04126305133104324,
				0.003272121772170067
			]
		},
		{
			"name":"fingerN.L",
			"rotation":[
				0.012748676352202892,
				0.6196616888046265,
				-0.042953699827194214,
				0.7835891246795654
			],
			"scale":[
				1.0000001192092896,
				1,
				1
			],
			"translation":[
				-0.009672051295638084,
				0.04284624382853508,
				0.0017894487828016281
			]
		},
		{
			"name":"fingerM.L",
			"rotation":[
				-0.13949252665042877,
				0.4917416572570801,
				-0.004749343264847994,
				0.8594821095466614
			],
			"scale":[
				0.9999998807907104,
				0.9999997615814209,
				1
			],
			"translation":[
				-0.02314099855720997,
				0.033812906593084335,
				-0.003476075828075409
			]
		},
		{
			"children":[
				9,
				10,
				11,
				12
			],
			"name":"hand2.L",
			"rotation":[
				-0.07062045484781265,
				-0.8313551545143127,
				-0.021712694317102432,
				0.5508084297180176
			],
			"scale":[
				0.9999998807907104,
				0.9999995827674866,
				1
			],
			"translation":[
				-4.0978193283081055e-08,
				0.09229394793510437,
				-1.4901161193847656e-08
			]
		},
		{
			"name":"fingerB.L",
			"rotation":[
				0.21650204062461853,
				0.1462332010269165,
				-0.04127994924783707,
				0.9643851518630981
			],
			"scale":[
				1,
				0.9999999403953552,
				0.9999999403953552
			],
			"translation":[
				-0.0009275469928979874,
				0.07829652726650238,
				0.04891803860664368
			]
		},
		{
			"children":[
				13,
				14
			],
			"name":"hand.L",
			"rotation":[
				-0.00321181514300406,
				0.3516831696033478,
				-0.05870194360613823,
				0.9342712163925171
			],
			"scale":[
				0.9999999403953552,
				1,
				0.9999998807907104
			],
			"translation":[
				-2.561137080192566e-08,
				0.303587406873703,
				3.3527612686157227e-08
			]
		},
		{
			"children":[
				15
			],
			"name":"forearm.L",
			"rotation":[
				0.04009432718157768,
				0.024869060143828392,
				-0.09239650517702103,
				0.9946038722991943
			],
			"scale":[
				1,
				0.9999999403953552,
				0.9999999403953552
			],
			"translation":[
				-3.632158041000366e-08,
				0.36589252948760986,
				-1.4901161193847656e-08
			]
		},
		{
			"children":[
				16
			],
			"name":"upper_arm.L",
			"rotation":[
				-0.4356348514556885,
				0.48248016834259033,
				-0.5760907530784607,
				0.49553459882736206
			],
			"scale":[
				1,
				1,
				1.0000001192092896
			],
			"translation":[
				-0.023906955495476723,
				0.2998993694782257,
				-0.14292152225971222
			]
		},
		{
			"children":[
				17
			],
			"name":"shoulder.L",
			"rotation":[
				-0.49956247210502625,
				-0.4631219506263733,
				-0.37023690342903137,
				0.631569504737854
			],
			"scale":[
				0.9999999403953552,
				1,
				1
			],
			"translation":[
				0.032284196466207504,
				0.17600031197071075,
				0.2029857635498047
			]
		},
		{
			"name":"fingerU3.R",
			"rotation":[
				-0.04886327683925629,
				0.5965380072593689,
				0.19631242752075195,
				0.776669979095459
			],
			"scale":[
				0.9999999403953552,
				0.9999998807907104,
				0.9999997615814209
			],
			"translation":[
				-1.0058283805847168e-07,
				0.06594808399677277,
				2.9802322387695312e-08
			]
		},
		{
			"children":[
				19
			],
			"name":"fingerU2.R",
			"rotation":[
				0.13014604151248932,
				0.07533693313598633,
				0.16702693700790405,
				0.974416971206665
			],
			"scale":[
				0.9999999403953552,
				1,
				0.9999998211860657
			],
			"translation":[
				2.0116567611694336e-07,
				0.09881585091352463,
				9.313225746154785e-08
			]
		},
		{
			"children":[
				20
			],
			"name":"fingerU.R",
			"rotation":[
				0.07318427413702011,
				0.24864566326141357,
				0.006053954362869263,
				0.9658068418502808
			],
			"scale":[
				1,
				1.0000001192092896,
				1
			],
			"translation":[
				0.12537285685539246,
				0.093265101313591,
				0.0343024879693985
			]
		},
		{
			"name":"fingerS3.R",
			"rotation":[
				0.21400940418243408,
				0.39361852407455444,
				0.12837715446949005,
				0.8847506642341614
			],
			"scale":[
				0.9999999403953552,
				1,
				0.9999998807907104
			],
			"translation":[
				0,
				0.1074380874633789,
				5.21540641784668e-08
			]
		},
		{
			"children":[
				22
			],
			"name":"fingerS2.R",
			"rotation":[
				0.15984554588794708,
				-0.04130022972822189,
				0.0190915334969759,
				0.9860929250717163
			],
			"scale":[
				0.9999999403953552,
				1,
				0.9999998807907104
			],
			"translation":[
				-1.0803341865539551e-07,
				0.08249765634536743,
				1.816079020500183e-08
			]
		},
		{
			"children":[
				23
			],
			"name":"fingerS.R",
			"rotation":[
				0.014121049083769321,
				-0.08384547382593155,
				0.012159052304923534,
				0.9963045120239258
			],
			"scale":[
				1.0000001192092896,
				0.9999999403953552,
				1.0000001192092896
			],
			"translation":[
				0.04102063924074173,
				0.09791721403598785,
				-0.012836575508117676
			]
		},
		{
			"name":"fingerN3.R",
			"rotation":[
				0.12847432494163513,
				0.9588193893432617,
				0.24390669167041779,
				0.06833206117153168
			],
			"scale":[
				0.9999999403953552,
				1.0000003576278687,
				0.9999999403953552
			],
			"translation":[
				1.043081283569336e-07,
				0.11224566400051117,
				5.960464477539063e-08
			]
		},
		{
			"children":[
				25
			],
			"name":"fingerN2.R",
			"rotation":[
				0.15777616202831268,
				0.15453805029392242,
				-0.055919159203767776,
				0.973703145980835
			],
			"scale":[
				0.9999998807907104,
				0.9999998807907104,
				0.9999998807907104
			],
			"translation":[
				-3.0547380447387695e-07,
				0.06692709773778915,
				1.6670674085617065e-07
			]
		},
		{
			"children":[
				26
			],
			"name":"fingerN.R",
			"rotation":[
				-0.022677918896079063,
				-0.3200027048587799,
				0.0400594100356102,
				0.9462976455688477
			],
			"scale":[
				1,
				1,
				1.0000001192092896
			],
			"translation":[
				-0.04534389078617096,
				0.09121685475111008,
				-0.029115229845046997
			]
		},
		{
			"name":"fingerM3.R",
			"rotation":[
				0.16227206587791443,
				0.8938652873039246,
				0.1929241269826889,
				0.3707464635372162
			],
			"scale":[
				0.9999999403953552,
				0.9999997019767761,
				0.9999999403953552
			],
			"translation":[
				1.043081283569336e-07,
				0.07256779074668884,
				1.4156103134155273e-07
			]
		},
		{
			"children":[
				28
			],
			"name":"fingerM2.R",
			"rotation":[
				0.08859317004680634,
				0.4860714375972748,
				-0.15949295461177826,
				0.8546624183654785
			],
			"scale":[
				1.0000001192092896,
				1.0000001192092896,
				1.0000001192092896
			],
			"translation":[
				-2.6263296604156494e-07,
				0.07312082499265671,
				2.584420144557953e-07
			]
		},
		{
			"children":[
				29
			],
			"name":"fingerM.R",
			"rotation":[
				0.08021772652864456,
				-0.645374059677124,
				0.11201095581054688,
				0.7513394951820374
			],
			"scale":[
				1,
				1.0000001192092896,
				1
			],
			"translation":[
				-0.11779917776584625,
				0.058731839060783386,
				-0.02485176920890808
			]
		},
		{
			"children":[
				21,
				24,
				27,
				30
			],
			"name":"hand2.R",
			"rotation":[
				0.1959943324327469,
				0.07898534834384918,
				-0.032177817076444626,
				0.9768889546394348
			],
			"scale":[
				1,
				1.0000001192092896,
				1
			],
			"translation":[
				-8.149072527885437e-09,
				0.2615545094013214,
				-2.207234501838684e-07
			]
		},
		{
			"name":"fingerB2.R",
			"rotation":[
				0.18992650508880615,
				0.5228219032287598,
				0.0969216600060463,
				0.8253432512283325
			],
			"scale":[
				0.9999999403953552,
				1,
				0.9999999403953552
			],
			"translation":[
				5.21540641784668e-08,
				0.12721897661685944,
				-7.450580596923828e-09
			]
		},
		{
			"children":[
				32
			],
			"name":"fingerB.R",
			"rotation":[
				0.0725649818778038,
				-0.620151937007904,
				-0.5167261362075806,
				0.5857815146446228
			],
			"scale":[
				1,
				1.0000003576278687,
				1.0000001192092896
			],
			"translation":[
				0.16679339110851288,
				0.11607754975557327,
				0.03890736773610115
			]
		},
		{
			"children":[
				31,
				33
			],
			"name":"hand.R",
			"rotation":[
				0.20560187101364136,
				0.6910333037376404,
				-0.0956198200583458,
				0.6863363981246948
			],
			"scale":[
				1.0000001192092896,
				1.000000238418579,
				1
			],
			"translation":[
				5.960464477539063e-08,
				0.5085866451263428,
				-8.195638656616211e-08
			]
		},
		{
			"children":[
				34
			],
			"name":"forearm.R",
			"rotation":[
				0.44290056824684143,
				-0.7238763570785522,
				-0.4815688133239746,
				0.21893751621246338
			],
			"scale":[
				0.9999999403953552,
				0.9999998807907104,
				0.9999998211860657
			],
			"translation":[
				1.9371509552001953e-07,
				0.7026352882385254,
				-2.9802322387695312e-08
			]
		},
		{
			"children":[
				35
			],
			"name":"upper_arm.R",
			"rotation":[
				-0.24621020257472992,
				-0.5225368738174438,
				0.628454864025116,
				0.5209416747093201
			],
			"scale":[
				1,
				1,
				1.0000001192092896
			],
			"translation":[
				0.12067101895809174,
				0.4192143678665161,
				-0.06901341676712036
			]
		},
		{
			"children":[
				36
			],
			"name":"shoulder.R",
			"rotation":[
				-0.47914502024650574,
				0.503368079662323,
				0.4579067528247833,
				0.5544024109840393
			],
			"scale":[
				0.9999999403953552,
				1,
				1
			],
			"translation":[
				-0.03228434920310974,
				0.16269929707050323,
				0.20354650914669037
			]
		},
		{
			"children":[
				8,
				18,
				37
			],
			"name":"spine.003",
			"rotation":[
				0.11073333770036697,
				1.149068253880614e-07,
				4.046270163371446e-08,
				0.9938501715660095
			],
			"translation":[
				1.1599922242102722e-14,
				0.18950529396533966,
				-2.9802322387695312e-08
			]
		},
		{
			"children":[
				38
			],
			"name":"spine.002",
			"rotation":[
				-0.1199713945388794,
				-1.3012217436880746e-07,
				-4.569199774095978e-08,
				0.9927773475646973
			],
			"scale":[
				1,
				0.9999999403953552,
				1
			],
			"translation":[
				1.1618618800347466e-14,
				0.22630077600479126,
				-3.5390257835388184e-08
			]
		},
		{
			"children":[
				39
			],
			"name":"spine.001",
			"rotation":[
				-0.14960795640945435,
				9.645769516453129e-09,
				-7.51287316802518e-08,
				0.988745391368866
			],
			"scale":[
				1,
				0.9999999403953552,
				1
			],
			"translation":[
				2.0571067568006356e-14,
				0.1822710633277893,
				-7.82310962677002e-08
			]
		},
		{
			"name":"toe.L",
			"rotation":[
				0.016504231840372086,
				0.9839015007019043,
				-0.17227040231227875,
				0.04459191858768463
			],
			"scale":[
				1.0000001192092896,
				0.9999995827674866,
				0.9999999403953552
			],
			"translation":[
				-1.30385160446167e-08,
				0.20018434524536133,
				5.73345459997654e-09
			]
		},
		{
			"children":[
				41
			],
			"name":"foot.L",
			"rotation":[
				-0.5397107601165771,
				-0.026010001078248024,
				-0.042983897030353546,
				0.8403500318527222
			],
			"scale":[
				0.9999999403953552,
				0.9999999403953552,
				0.9999999403953552
			],
			"translation":[
				2.523302100598812e-08,
				0.43011122941970825,
				2.070737536996603e-08
			]
		},
		{
			"children":[
				42
			],
			"name":"shin.L",
			"rotation":[
				0.17427542805671692,
				-0.0011197254061698914,
				0.034363776445388794,
				0.9840965270996094
			],
			"scale":[
				1,
				1.0000001192092896,
				1.0000001192092896
			],
			"translation":[
				-3.897002898156643e-08,
				0.46278658509254456,
				2.0954757928848267e-09
			]
		},
		{
			"children":[
				43
			],
			"name":"thigh.L",
			"rotation":[
				-0.38397571444511414,
				-0.6801405549049377,
				0.6241798400878906,
				0.019263584166765213
			],
			"scale":[
				1,
				1.0000001192092896,
				1
			],
			"translation":[
				-0.006212808191776276,
				0.15811267495155334,
				-0.06244955211877823
			]
		},
		{
			"children":[
				44
			],
			"name":"pelvis.L",
			"rotation":[
				-0.08939846605062485,
				-0.766085684299469,
				-0.5013976097106934,
				0.3920728266239166
			],
			"scale":[
				1,
				0.9999998807907104,
				1
			],
			"translation":[
				0.06083539500832558,
				-0.06633263826370239,
				-0.012292400002479553
			]
		},
		{
			"name":"toe.R",
			"rotation":[
				0.016504252329468727,
				-0.9839014410972595,
				0.1722704917192459,
				0.04459204897284508
			],
			"scale":[
				1.0000001192092896,
				1.000000238418579,
				1
			],
			"translation":[
				6.05359673500061e-09,
				0.2001844048500061,
				1.0932126315310597e-08
			]
		},
		{
			"children":[
				46
			],
			"name":"foot.R",
			"rotation":[
				-0.5397109389305115,
				0.026009952649474144,
				0.04298406466841698,
				0.8403499126434326
			],
			"scale":[
				0.9999998807907104,
				0.9999998807907104,
				1
			],
			"translation":[
				-5.069159669801593e-08,
				0.43011143803596497,
				-1.0186340659856796e-10
			]
		},
		{
			"children":[
				47
			],
			"name":"shin.R",
			"rotation":[
				0.17427535355091095,
				0.0011199972359463573,
				-0.03436386212706566,
				0.9840965270996094
			],
			"scale":[
				0.9999999403953552,
				0.9999999403953552,
				0.9999999403953552
			],
			"translation":[
				2.7328496798872948e-08,
				0.46278682351112366,
				-7.683411240577698e-09
			]
		},
		{
			"children":[
				48
			],
			"name":"thigh.R",
			"rotation":[
				-0.3839760720729828,
				0.6801403760910034,
				-0.6241797804832458,
				0.019263800233602524
			],
			"scale":[
				1,
				0.9999998807907104,
				0.9999999403953552
			],
			"translation":[
				0.006212602369487286,
				0.15811258554458618,
				-0.0624498687684536
			]
		},
		{
			"children":[
				49
			],
			"name":"pelvis.R",
			"rotation":[
				-0.08939861506223679,
				0.7660853862762451,
				0.5013976097106934,
				0.392073392868042
			],
			"scale":[
				0.9999999403953552,
				1,
				0.9999998807907104
			],
			"translation":[
				-0.06083536893129349,
				-0.06633276492357254,
				-0.012292444705963135
			]
		},
		{
			"children":[
				40,
				45,
				50
			],
			"name":"spine",
			"rotation":[
				0.17955873906612396,
				2.4220605610025814e-07,
				4.420870425292378e-08,
				0.9837472438812256
			],
			"scale":[
				1,
				1,
				0.9999999403953552
			],
			"translation":[
				0,
				1.142797589302063,
				-0.10630956292152405
			]
		},
		{
			"name":"Control.L",
			"rotation":[
				-0.9204228520393372,
				4.6601794423395404e-08,
				-1.0972296138334059e-07,
				0.3909241855144501
			],
			"translation":[
				0.2097546011209488,
				0.18689970672130585,
				-0.07959838956594467
			]
		},
		{
			"name":"TOP.L",
			"rotation":[
				0.7069998979568481,
				0.012297380715608597,
				0.012297380715608597,
				0.7069998383522034
			],
			"scale":[
				0.9999999403953552,
				1,
				0.9999999403953552
			],
			"translation":[
				0.21090896427631378,
				0.6082879900932312,
				0.311579167842865
			]
		},
		{
			"name":"Control.R",
			"rotation":[
				-0.9204228520393372,
				-4.6601794423395404e-08,
				1.0972296138334059e-07,
				0.3909241855144501
			],
			"translation":[
				-0.2097546011209488,
				0.18689970672130585,
				-0.07959838956594467
			]
		},
		{
			"name":"TOP.R",
			"rotation":[
				0.7069998979568481,
				-0.012297380715608597,
				-0.012297380715608597,
				0.7069998383522034
			],
			"scale":[
				0.9999999403953552,
				1,
				0.9999999403953552
			],
			"translation":[
				-0.21090896427631378,
				0.6082879900932312,
				0.311579167842865
			]
		},
		{
			"name":"ControlHand.R",
			"rotation":[
				-0.3470466732978821,
				-0.41706499457359314,
				-0.3597433865070343,
				0.7590784430503845
			],
			"scale":[
				0.9999999403953552,
				1,
				0.9999999403953552
			],
			"translation":[
				-0.013189021497964859,
				1.203629732131958,
				0.6835509538650513
			]
		},
		{
			"name":"ControlHand.L",
			"rotation":[
				-0.035385359078645706,
				0.035107702016830444,
				0.998733401298523,
				0.006860377732664347
			],
			"scale":[
				0.9999999403953552,
				0.9999999403953552,
				0.9999999403953552
			],
			"translation":[
				0.42130598425865173,
				1.0785644054412842,
				0.09633521735668182
			]
		},
		{
			"name":"TopHand.R",
			"rotation":[
				-0.4245801866054535,
				-0.0840456411242485,
				0.6912708282470703,
				0.5786300897598267
			],
			"scale":[
				0.9999999403953552,
				0.9999998211860657,
				1
			],
			"translation":[
				-0.7660688161849976,
				1.1871790885925293,
				0.10401703417301178
			]
		},
		{
			"name":"TopHand.L",
			"rotation":[
				-0.4793514311313629,
				0.5429750084877014,
				-0.504355251789093,
				0.4701342284679413
			],
			"translation":[
				0.4142782390117645,
				1.4701329469680786,
				-0.09078070521354675
			]
		},
		{
			"mesh":0,
			"name":"BullyMan",
			"skin":0
		},
		{
			"children":[
				60,
				51,
				52,
				53,
				54,
				55,
				56,
				57,
				58,
				59
			],
			"name":"BonesF",
			"scale":[
				8,
				8,
				8
			]
		}
	],
	"materials":[
		{
			"doubleSided":true,
			"name":"MaterialBullyMan",
			"pbrMetallicRoughness":{
				"baseColorTexture":{
					"index":0
				},
				"metallicFactor":0,
				"metallicRoughnessTexture":{
					"index":1
				}
			}
		}
	],
	"meshes":[
		{
			"name":"MeshBullyMan",
			"primitives":[
				{
					"attributes":{
						"POSITION":0,
						"NORMAL":1,
						"TEXCOORD_0":2,
						"JOINTS_0":3,
						"WEIGHTS_0":4
					},
					"indices":5,
					"material":0
				}
			]
		}
	],
	"textures":[
		{
			"sampler":0,
			"source":0
		},
		{
			"sampler":0,
			"source":1
		}
	],
	"images":[
		{
			"mimeType":"image/png",
			"name":"DiffuseBullyMan",
			"uri":"DiffuseBullyMan.png"
		},
		{
			"mimeType":"image/png",
			"name":"Image",
			"uri":"Image.png"
		}
	],
	"skins":[
		{
			"inverseBindMatrices":6,
			"joints":[
				51,
				40,
				39,
				38,
				8,
				7,
				6,
				0,
				1,
				5,
				4,
				3,
				2,
				18,
				17,
				16,
				15,
				13,
				9,
				10,
				11,
				12,
				14,
				37,
				36,
				35,
				34,
				31,
				21,
				20,
				19,
				24,
				23,
				22,
				27,
				26,
				25,
				30,
				29,
				28,
				33,
				32,
				45,
				44,
				43,
				42,
				41,
				50,
				49,
				48,
				47,
				46,
				52,
				53,
				54,
				55,
				56,
				57,
				58,
				59
			],
			"name":"BonesF"
		}
	],
	"accessors":[
		{
			"bufferView":0,
			"componentType":5126,
			"count":9326,
			"max":[
				3.612757921218872,
				18.455671310424805,
				6.383748531341553
			],
			"min":[
				-7.833309650421143,
				0.0033348232973366976,
				-1.9349663257598877
			],
			"type":"VEC3"
		},
		{
			"bufferView":1,
			"componentType":5126,
			"count":9326,
			"type":"VEC3"
		},
		{
			"bufferView":2,
			"componentType":5126,
			"count":9326,
			"type":"VEC2"
		},
		{
			"bufferView":3,
			"componentType":5121,
			"count":9326,
			"type":"VEC4"
		},
		{
			"bufferView":4,
			"componentType":5126,
			"count":9326,
			"type":"VEC4"
		},
		{
			"bufferView":5,
			"componentType":5123,
			"count":46854,
			"type":"SCALAR"
		},
		{
			"bufferView":6,
			"componentType":5126,
			"count":60,
			"type":"MAT4"
		}
	],
	"bufferViews":[
		{
			"buffer":0,
			"byteLength":111912,
			"byteOffset":0,
			"target":34962
		},
		{
			"buffer":0,
			"byteLength":111912,
			"byteOffset":111912,
			"target":34962
		},
		{
			"buffer":0,
			"byteLength":74608,
			"byteOffset":223824,
			"target":34962
		},
		{
			"buffer":0,
			"byteLength":37304,
			"byteOffset":298432,
			"target":34962
		},
		{
			"buffer":0,
			"byteLength":149216,
			"byteOffset":335736,
			"target":34962
		},
		{
			"buffer":0,
			"byteLength":93708,
			"byteOffset":484952,
			"target":34963
		},
		{
			"buffer":0,
			"byteLength":3840,
			"byteOffset":578660
		}
	],
	"samplers":[
		{
			"magFilter":9729,
			"minFilter":9987
		}
	],
	"buffers":[
		{
			"byteLength":582500,
			"uri":"scene.bin"
		}
	]
}
