{
	"asset":{
		"generator":"Khronos glTF Blender I/O v4.1.63",
		"version":"2.0"
	},
	"scene":0,
	"scenes":[
		{
			"name":"Scene",
			"nodes":[
				0,
				1
			]
		}
	],
	"nodes":[
		{
			"mesh":0,
			"name":"camera",
			"rotation":[
				0,
				-0.7071068286895752,
				0,
				0.7071067094802856
			],
			"scale":[
				0.5700311064720154,
				0.5700311064720154,
				0.5700311064720154
			]
		},
		{
			"mesh":1,
			"name":"tripod",
			"rotation":[
				0,
				-0.7071068286895752,
				0,
				0.7071067094802856
			],
			"scale":[
				0.5700311064720154,
				0.5700311064720154,
				0.5700311064720154
			]
		}
	],
	"materials":[
		{
			"name":"camera",
			"normalTexture":{
				"index":0
			},
			"pbrMetallicRoughness":{
				"baseColorTexture":{
					"index":1
				},
				"metallicRoughnessTexture":{
					"index":2
				}
			}
		},
		{
			"name":"tripod",
			"normalTexture":{
				"index":3
			},
			"pbrMetallicRoughness":{
				"baseColorTexture":{
					"index":4
				},
				"metallicRoughnessTexture":{
					"index":5
				}
			}
		}
	],
	"meshes":[
		{
			"name":"camera_uv",
			"primitives":[
				{
					"attributes":{
						"POSITION":0,
						"NORMAL":1,
						"TEXCOORD_0":2
					},
					"indices":3,
					"material":0
				}
			]
		},
		{
			"name":"tripod_uv",
			"primitives":[
				{
					"attributes":{
						"POSITION":4,
						"NORMAL":5,
						"TEXCOORD_0":6
					},
					"indices":7,
					"material":1
				}
			]
		}
	],
	"textures":[
		{
			"sampler":0,
			"source":0
		},
		{
			"sampler":0,
			"source":1
		},
		{
			"sampler":0,
			"source":2
		},
		{
			"sampler":0,
			"source":3
		},
		{
			"sampler":0,
			"source":4
		},
		{
			"sampler":0,
			"source":5
		}
	],
	"images":[
		{
			"mimeType":"image/png",
			"name":"camera_camera_Normal",
			"uri":"camera_camera_Normal.png"
		},
		{
			"mimeType":"image/png",
			"name":"camera_camera_BaseColor",
			"uri":"camera_camera_BaseColor.png"
		},
		{
			"mimeType":"image/png",
			"name":"camera_camera_Roughness",
			"uri":"camera_camera_Roughness.png"
		},
		{
			"mimeType":"image/png",
			"name":"camera_tripod_Normal",
			"uri":"camera_tripod_Normal.png"
		},
		{
			"mimeType":"image/png",
			"name":"camera_tripod_BaseColor",
			"uri":"camera_tripod_BaseColor.png"
		},
		{
			"mimeType":"image/png",
			"name":"camera_tripod_Roughness",
			"uri":"camera_tripod_Roughness.png"
		}
	],
	"accessors":[
		{
			"bufferView":0,
			"componentType":5126,
			"count":14844,
			"max":[
				1.8916611671447754,
				12.645012855529785,
				1.2003434896469116
			],
			"min":[
				-1.8916611671447754,
				9.395228385925293,
				-1.200343370437622
			],
			"type":"VEC3"
		},
		{
			"bufferView":1,
			"componentType":5126,
			"count":14844,
			"type":"VEC3"
		},
		{
			"bufferView":2,
			"componentType":5126,
			"count":14844,
			"type":"VEC2"
		},
		{
			"bufferView":3,
			"componentType":5123,
			"count":41838,
			"type":"SCALAR"
		},
		{
			"bufferView":4,
			"componentType":5126,
			"count":6513,
			"max":[
				2.6307950019836426,
				9.506563186645508,
				2.852458953857422
			],
			"min":[
				-3.324300527572632,
				-0.0014147758483886719,
				-1.7042126655578613
			],
			"type":"VEC3"
		},
		{
			"bufferView":5,
			"componentType":5126,
			"count":6513,
			"type":"VEC3"
		},
		{
			"bufferView":6,
			"componentType":5126,
			"count":6513,
			"type":"VEC2"
		},
		{
			"bufferView":7,
			"componentType":5123,
			"count":18360,
			"type":"SCALAR"
		}
	],
	"bufferViews":[
		{
			"buffer":0,
			"byteLength":178128,
			"byteOffset":0,
			"target":34962
		},
		{
			"buffer":0,
			"byteLength":178128,
			"byteOffset":178128,
			"target":34962
		},
		{
			"buffer":0,
			"byteLength":118752,
			"byteOffset":356256,
			"target":34962
		},
		{
			"buffer":0,
			"byteLength":83676,
			"byteOffset":475008,
			"target":34963
		},
		{
			"buffer":0,
			"byteLength":78156,
			"byteOffset":558684,
			"target":34962
		},
		{
			"buffer":0,
			"byteLength":78156,
			"byteOffset":636840,
			"target":34962
		},
		{
			"buffer":0,
			"byteLength":52104,
			"byteOffset":714996,
			"target":34962
		},
		{
			"buffer":0,
			"byteLength":36720,
			"byteOffset":767100,
			"target":34963
		}
	],
	"samplers":[
		{
			"magFilter":9729,
			"minFilter":9987
		}
	],
	"buffers":[
		{
			"byteLength":803820,
			"uri":"scene.bin"
		}
	]
}
